# xmcd
#
# Track frame offsets: 
#        150
#        15399
#        36561
#        46826
#        63301
#        87195
#        104746
#        122574
#        139611
#        156110
#        175892
#        214459
#
# Disc length: 4154 seconds
#
# Revision: 0
# Processed by: cddbd v1.5.2PL0 Copyright (c) Steve Scherf et al.
# Submitted via: ExactAudioCopy v1.0b1
#
DISCID=a410380c
DTITLE=Leo Kysela - Gurgaon Sunset
DYEAR=2011
DGENRE=Blues
TTITLE0=Shooting Gun
TTITLE1=Violated
TTITLE2=India
TTITLE3=Back In The Days
TTITLE4=Little Boy
TTITLE5=Together - For You
TTITLE6=Sometimes
TTITLE7=Mothers Of The Disappeared
TTITLE8=Moon River
TTITLE9=Sittin´ On The Dock Of The Bay
TTITLE10=Blowin´In The Wind
TTITLE11=Video: Love Wood Set Me Free
EXTD=
EXTT0=
EXTT1=
EXTT2=
EXTT3=
EXTT4=
EXTT5=
EXTT6=
EXTT7=
EXTT8=
EXTT9=
EXTT10=
EXTT11=
PLAYORDER=
